# Blender 4.1.1
# www.blender.org
mtllib TreasureBoxMain.mtl
o kayu_dalam
v 1.274972 -0.239640 0.856163
v 1.274972 -0.239640 -0.856163
v -1.274972 -0.239640 0.856163
v -1.274972 0.686024 0.856163
v 1.274972 0.686025 -0.856163
v -1.274972 0.686025 -0.856163
v -1.274972 -0.239640 -0.856163
v 1.274972 0.686024 0.856163
v -1.417364 0.810237 1.000000
v -1.417364 -0.363854 1.000000
v -1.417364 0.810238 -1.000000
v -1.417364 -0.363853 -1.000000
v 1.417364 0.810237 1.000000
v 1.417364 -0.363854 1.000000
v 1.417364 0.810238 -1.000000
v 1.417364 -0.363853 -1.000000
v 1.274972 -0.239640 0.856163
v 1.274972 -0.239640 -0.856163
v -1.274972 -0.239640 0.856163
v -1.274972 0.686024 0.856163
v 1.274972 0.686025 -0.856163
v -1.274972 0.686025 -0.856163
v -1.274972 -0.239640 -0.856163
v 1.274972 0.686024 0.856163
v 1.417364 -0.363854 0.844820
v 1.417364 -0.363853 -0.844820
v -1.417364 0.810237 0.844820
v -1.417364 0.810238 -0.844820
v 1.417364 0.810238 -0.844820
v 1.417364 0.810237 0.844820
v -1.417364 -0.363853 -0.844820
v -1.417364 -0.363854 0.844820
v -1.279278 -0.363854 1.000000
v 1.279278 -0.363854 1.000000
v -1.279278 0.810238 -1.000000
v 1.279278 0.810238 -1.000000
v 1.279278 -0.363853 -1.000000
v -1.279278 -0.363853 -1.000000
v 1.279278 0.810237 1.000000
v -1.279278 0.810237 1.000000
v 1.279278 -0.363854 0.844820
v -1.279278 -0.363854 0.844820
v 1.279278 -0.363853 -0.844820
v -1.279278 -0.363853 -0.844820
v -1.279278 0.806194 0.844820
v 1.279278 0.806194 0.844820
v -1.279278 0.806194 -0.844820
v 1.279278 0.806194 -0.844820
v -1.417364 0.676374 1.000000
v -1.417364 -0.229990 1.000000
v 1.417364 -0.229990 -1.000000
v 1.417364 0.676374 -1.000000
v -1.417364 0.676374 -1.000000
v -1.417364 -0.229990 -1.000000
v 1.417364 0.676374 1.000000
v 1.417364 -0.229990 1.000000
v -1.417364 -0.229990 0.844820
v -1.417364 0.676374 0.844820
v -1.417364 -0.229990 -0.844820
v -1.417364 0.676374 -0.844820
v 1.417364 -0.229990 -0.844820
v 1.417364 0.676374 -0.844820
v 1.417364 -0.229990 0.844820
v 1.417364 0.676374 0.844820
v 1.279278 -0.229990 1.000000
v 1.279278 0.676374 1.000000
v -1.279278 -0.229990 1.000000
v -1.279278 0.676374 1.000000
v -1.279278 -0.229990 -1.000000
v -1.279278 0.676374 -1.000000
v 1.279278 -0.229990 -1.000000
v 1.279278 0.676374 -1.000000
v -1.274972 0.677080 -0.758218
v 1.274972 0.677080 -0.758218
v -1.279278 0.809539 -0.746874
v 1.279278 0.809539 -0.746874
v 1.160527 0.685947 -0.856163
v 1.160527 0.685947 0.856163
v 1.164832 0.810161 -0.844820
v 1.164832 0.810160 0.844820
v 1.274972 0.677897 0.767164
v -1.274972 0.677897 0.767164
v -1.279278 0.810356 0.755821
v 1.279278 0.810356 0.755821
v -1.179887 0.685276 0.856163
v -1.179887 0.685276 -0.856163
v -1.184192 0.809490 -0.844820
v -1.184192 0.809489 0.844820
v -1.117509 -0.363854 1.000000
v 1.117509 -0.363854 1.000000
v 1.117509 -0.363853 -1.000000
v -1.117509 -0.363853 -1.000000
v 1.117509 -0.363854 0.844820
v -1.117509 -0.363854 0.844820
v 1.117509 -0.363853 -0.844820
v -1.117509 -0.363853 -0.844820
v 1.117509 -0.229990 -1.000000
v -1.117509 -0.229990 -1.000000
v -1.117509 -0.229990 1.000000
v 1.117509 -0.229990 1.000000
v 1.417364 -0.363854 0.649389
v 1.417364 -0.363853 -0.649390
v -1.417364 -0.363853 -0.649390
v -1.417364 -0.363854 0.649389
v 1.279278 -0.363853 -0.649390
v 1.279278 -0.363854 0.649389
v -1.279278 -0.363853 -0.649390
v -1.279278 -0.363854 0.649389
v 1.417364 -0.229990 0.649390
v 1.417364 -0.229990 -0.649390
v -1.417364 -0.229990 -0.649390
v -1.417364 -0.229990 0.649390
v 1.117509 -0.363853 -0.649390
v 1.117509 -0.363854 0.649389
v -1.117509 -0.363853 -0.649390
v -1.117509 -0.363854 0.649389
v 0.102740 0.810237 1.000000
v -0.102740 0.810237 1.000000
v -0.102740 0.806194 0.844820
v 0.102740 0.806194 0.844820
v -0.102740 0.676374 1.000000
v 0.102740 0.676374 1.000000
v 0.102395 0.677897 0.767164
v -0.102395 0.677897 0.767164
v -0.102740 0.810356 0.755821
v 0.102740 0.810356 0.755821
v 0.102740 -0.221638 1.000000
v -0.102740 -0.221638 1.000000
v -0.102740 -0.355502 1.000000
v 0.102740 -0.355502 1.000000
v 0.102740 0.810237 0.848234
v -0.102740 0.810237 0.848234
v -0.102740 0.676374 0.848234
v 0.102740 0.676374 0.848234
v 0.102740 -0.221638 0.848234
v -0.102740 -0.221638 0.848234
v -0.102740 -0.355502 0.848234
v 0.102740 -0.355502 0.848234
vn -0.5765 -0.0000 -0.8171
vn 0.5765 -0.0000 -0.8171
vn 0.5765 -0.0000 0.8171
vn -0.5765 -0.0000 0.8171
vn 0.0104 -0.9999 -0.0093
vn 0.0188 -0.9997 -0.0167
vn 0.0293 -0.9992 -0.0260
vn -0.0000 -0.0000 1.0000
vn -1.0000 -0.0000 -0.0000
vn -0.0000 1.0000 -0.0000
vn 1.0000 -0.0000 -0.0000
vn -0.0000 -0.0000 -1.0000
vn -0.0212 -0.9995 0.0231
vn 0.1364 -0.9713 0.1947
vn 0.0212 -0.9995 0.0231
vn 0.0104 -0.9999 0.0093
vn 0.0188 -0.9997 0.0167
vn -0.0000 -1.0000 -0.0000
vn 0.0293 -0.9996 -0.0000
vn -0.0293 -0.9996 -0.0000
vn -0.0188 -0.9997 0.0167
vn -0.0104 -0.9999 0.0093
vn -0.0000 -0.9997 0.0260
vn -0.0188 -0.9997 -0.0167
vn -0.0104 -0.9999 -0.0093
vn -0.0293 -0.9992 -0.0260
vn -0.0000 -0.9997 -0.0260
vn -0.6394 -0.0000 0.7688
vn -0.0794 -0.0000 0.9968
vn -0.0676 -0.9977 -0.0000
vn 0.0676 -0.9977 -0.0000
vn 0.0794 -0.0000 0.9968
vn 0.6394 -0.0000 0.7688
vn -0.9996 -0.0000 -0.0299
vn -0.0383 -0.9992 -0.0066
vn -0.0794 -0.0000 -0.9968
vn -0.6394 -0.0000 -0.7688
vn -0.9996 -0.0000 0.0299
vn -0.0000 -0.9978 0.0669
vn 0.2130 -0.7671 0.6051
vn -0.0000 -0.9978 -0.0669
vn 0.9996 -0.0000 -0.0299
vn -0.0346 -0.9994 -0.0000
vn -0.0000 0.9959 -0.0909
vn 0.0024 -0.0914 -0.9958
vn 0.0001 -0.0934 -0.9956
vn -0.0007 -0.0940 -0.9956
vn -0.0000 -0.9994 0.0341
vn -0.0000 0.0853 -0.9964
vn -0.0000 0.9959 0.0909
vn -0.9994 0.0333 -0.0000
vn -0.9994 0.0347 0.0020
vn -0.9995 0.0326 -0.0011
vn 0.9994 0.0333 -0.0000
vn 0.9994 0.0347 0.0020
vn 0.9994 0.0355 0.0032
vn 0.9994 -0.0346 -0.0000
vn -0.0024 -0.0916 0.9958
vn -0.0007 -0.0932 0.9956
vn 0.0001 -0.0940 0.9956
vn -0.0007 1.0000 -0.0000
vn -0.0024 -0.0916 -0.9958
vn -0.0007 -0.0932 -0.9956
vn -0.0031 -0.0908 -0.9959
vn -0.0000 0.0853 0.9964
vn -0.0000 -0.9989 -0.0467
vn 0.9994 0.0333 0.0004
vn 0.9994 0.0347 -0.0020
vn 0.9995 0.0326 0.0015
vn -0.9994 0.0333 0.0004
vn -0.9994 0.0347 -0.0020
vn -0.9994 0.0355 -0.0032
vn -0.9994 -0.0346 -0.0000
vn 0.0346 -0.9994 -0.0000
vn 0.0079 1.0000 -0.0000
vn 0.0024 -0.0914 0.9958
vn 0.0001 -0.0934 0.9956
vn 0.0031 -0.0908 0.9959
vn 0.3829 -0.9226 0.0481
vn -0.3364 0.8121 -0.4767
vn 0.0293 -0.9992 0.0260
vn -0.0293 -0.9992 0.0260
vn -0.0521 -0.9965 -0.0653
vn 0.9996 -0.0000 0.0299
vn 0.0031 -0.0908 -0.9959
vn -0.9994 0.0355 0.0032
vn 0.9995 0.0326 -0.0011
vn -0.0031 -0.0908 0.9959
vn 0.0001 -0.0940 -0.9956
vn 0.9994 0.0355 -0.0032
vn -0.9995 0.0326 0.0015
vn -0.0007 -0.0940 0.9956
vn -0.0000 -0.0000 -0.0000
vt 0.562623 0.506101
vt 0.784412 0.253050
vt 0.784412 0.506101
vt 0.281312 0.803472
vt 0.503100 0.562623
vt 0.503100 0.803472
vt 0.562623 1.000000
vt 0.784412 0.759151
vt 0.784412 1.000000
vt 0.562623 0.759151
vt 0.784412 0.506101
vt 0.784412 0.759151
vt 0.399482 0.803472
vt 0.413177 0.825304
vt 0.399447 0.825315
vt 0.000000 0.032074
vt 0.013703 0.000000
vt 0.013703 0.032074
vt 0.000000 0.313385
vt 0.021827 0.281312
vt 0.021827 0.313385
vt 0.548920 0.000000
vt 0.562623 0.021827
vt 0.548920 0.021827
vt 0.281312 0.313385
vt 0.303139 0.281312
vt 0.303139 0.313385
vt 0.000000 0.594697
vt 0.013703 0.562623
vt 0.013703 0.594697
vt 0.803472 0.253050
vt 0.562623 0.000000
vt 0.803472 0.000000
vt 0.540796 0.313385
vt 0.562623 0.281312
vt 0.562623 0.313385
vt 0.540796 0.281312
vt 0.548920 0.259485
vt 0.562623 0.281312
vt 0.548920 0.281312
vt 0.562623 0.049315
vt 0.548920 0.049315
vt 0.259485 0.313385
vt 0.281312 0.281312
vt 0.281312 0.313385
vt 0.259485 0.281312
vt 0.426871 0.803472
vt 0.413177 0.825304
vt 0.413177 0.803483
vt 0.969415 0.972405
vt 0.955677 0.734748
vt 0.969415 0.734748
vt 0.838038 0.741136
vt 0.851776 0.978794
vt 0.838038 0.978794
vt 0.440635 0.825304
vt 0.426940 0.803472
vt 0.440635 0.803483
vt 0.558411 0.699771
vt 0.536563 0.816528
vt 0.536563 0.699771
vt 0.281312 0.021827
vt 0.295015 0.049315
vt 0.281312 0.049315
vt 0.532866 0.021827
vt 0.532866 0.049315
vt 0.281312 0.259485
vt 0.295015 0.281312
vt 0.281312 0.281312
vt 0.532866 0.259485
vt 0.532866 0.281312
vt 0.267608 0.594697
vt 0.281312 0.562623
vt 0.281312 0.594697
vt 0.130460 0.562623
vt 0.130460 0.594697
vt 0.281312 0.000000
vt 0.295015 0.021827
vt 0.532866 0.000000
vt 0.267608 0.032074
vt 0.281312 0.000000
vt 0.281312 0.032074
vt 0.267608 0.000000
vt 0.440635 0.825304
vt 0.454329 0.803472
vt 0.454364 0.825315
vt 0.816189 0.747804
vt 0.838038 0.493899
vt 0.838038 0.747804
vt 0.013703 0.281312
vt 0.029757 0.249238
vt 0.029757 0.281312
vt 0.880216 0.962925
vt 0.865996 0.743448
vt 0.880216 0.741136
vt 0.267608 0.281312
vt 0.281312 0.249238
vt 0.281312 0.281312
vt 0.267608 0.249238
vt 0.013703 0.843935
vt 0.029757 0.811861
vt 0.029757 0.843935
vt 0.951366 0.254646
vt 0.937048 0.493899
vt 0.937048 0.253050
vt 0.267608 0.843935
vt 0.281312 0.811861
vt 0.281312 0.843935
vt 0.267608 0.811861
vt 0.021827 0.562623
vt 0.049315 0.530550
vt 0.049315 0.562623
vt 0.259485 0.562623
vt 0.281312 0.530550
vt 0.281312 0.562623
vt 0.259485 0.530550
vt 0.303139 0.562623
vt 0.330627 0.530550
vt 0.330627 0.562623
vt 0.965308 -0.000000
vt 0.950990 0.239253
vt 0.950990 0.211765
vt 0.540796 0.562623
vt 0.562623 0.530550
vt 0.562623 0.562623
vt 0.540796 0.530550
vt 0.000000 0.843935
vt 0.013703 0.811861
vt 0.000000 0.811861
vt 0.281312 0.562623
vt 0.303139 0.530550
vt 0.281312 0.530550
vt 0.000000 0.562623
vt 0.021827 0.530550
vt 0.000000 0.530550
vt 0.000000 0.281312
vt 0.013703 0.249238
vt 0.000000 0.249238
vt 0.901095 0.743448
vt 0.915315 0.962925
vt 0.901095 0.960613
vt 0.936638 0.475694
vt 0.916402 0.256217
vt 0.936638 0.253905
vt 0.965685 0.253050
vt 0.951366 0.492304
vt 0.951366 0.464815
vt 0.915315 0.743448
vt 0.929535 0.962925
vt 0.915315 0.960613
vt 0.969996 0.495495
vt 0.955677 0.734748
vt 0.955677 0.493899
vt 0.845954 0.474839
vt 0.866190 0.255363
vt 0.866190 0.472527
vt 0.875930 0.000427
vt 0.896293 0.253905
vt 0.875930 0.253478
vt 0.875930 0.475694
vt 0.896166 0.256217
vt 0.896166 0.473381
vt 0.536563 0.816528
vt 0.503100 0.816101
vt 0.503100 0.563051
vt 0.851775 0.962925
vt 0.851775 0.741136
vt 0.901095 0.610656
vt 0.901095 0.631047
vt 0.880731 0.747377
vt 0.916402 0.256217
vt 0.896166 0.475694
vt 0.896166 0.253905
vt 0.916656 0.000427
vt 0.896293 0.237851
vt 0.940932 0.978794
vt 0.929535 0.741136
vt 0.940932 0.741136
vt 0.965309 -0.000000
vt 0.977977 0.116364
vt 0.977977 0.136687
vt 0.454364 0.804125
vt 0.463810 0.833279
vt 0.454378 0.832965
vt 0.955677 0.747804
vt 0.941877 0.493899
vt 0.955677 0.493899
vt 0.784412 0.506955
vt 0.816189 0.253478
vt 0.816189 0.506528
vt 0.937048 -0.000000
vt 0.950990 0.253050
vt 0.798131 0.794426
vt 0.784412 0.824714
vt 0.784412 0.792934
vt 0.798427 0.794426
vt 0.812146 0.824714
vt 0.798279 0.823265
vt 0.833236 0.240849
vt 0.803472 0.001596
vt 0.833236 -0.000000
vt 0.804803 0.761646
vt 0.816173 0.790667
vt 0.804817 0.790486
vt 0.965685 0.253050
vt 0.977042 0.493899
vt 0.965685 0.493899
vt 0.399448 0.804258
vt 0.388078 0.833279
vt 0.388078 0.803472
vt 0.784412 0.623712
vt 0.816189 0.507383
vt 0.816189 0.623746
vt 0.982554 0.747804
vt 0.969996 0.631047
vt 0.982554 0.631047
vt 0.375330 0.805096
vt 0.362877 0.835252
vt 0.362877 0.803472
vt 0.375625 0.805096
vt 0.388078 0.835252
vt 0.375477 0.833936
vt 0.816189 0.492304
vt 0.845954 0.253050
vt 0.845954 0.493899
vt 0.825658 0.985461
vt 0.816189 0.747804
vt 0.825658 0.747804
vt 0.866190 0.253050
vt 0.875627 0.493899
vt 0.866190 0.493899
vt 0.473256 0.804125
vt 0.463810 0.833279
vt 0.463810 0.803472
vt 0.251555 0.843935
vt 0.251555 0.811861
vt 0.251555 0.281312
vt 0.251555 0.249238
vt 0.295015 0.000000
vt 0.311069 0.021827
vt 0.311069 0.000000
vt 0.295015 0.259485
vt 0.311069 0.281312
vt 0.311069 0.259485
vt 0.311069 0.049315
vt 0.311069 0.231996
vt 0.532866 0.231996
vt 0.295015 0.231996
vt 0.513308 0.562623
vt 0.513308 0.530550
vt 0.231996 0.562623
vt 0.231996 0.530550
vt 0.548920 0.231996
vt 0.281312 0.231996
vt 0.562623 0.259485
vt 0.562623 0.231996
vt 0.982554 0.610656
vt 0.969996 0.493899
vt 0.982554 0.493899
vt 0.969996 0.610656
vt 0.816189 0.760433
vt 0.784412 0.644103
vt 0.816189 0.644069
vt 0.150852 0.594697
vt 0.267608 0.562623
vt 0.281312 0.562623
vt 0.558411 0.562623
vt 0.536563 0.679380
vt 0.536563 0.562623
vt 0.558411 0.679380
vt 0.804803 0.760860
vt 0.804803 0.792934
vt 0.833236 0.000000
vt 0.854583 0.247237
vt 0.833236 0.247237
vt 0.838038 0.493899
vt 0.859385 0.741136
vt 0.838038 0.741136
vt 0.921486 0.493899
vt 0.901095 0.741136
vt 0.901095 0.493899
vt 0.937048 -0.000000
vt 0.916656 0.247237
vt 0.916656 -0.000000
vt 0.281312 0.824819
vt 0.301703 0.803472
vt 0.301703 0.824819
vt 0.322094 0.803472
vt 0.322094 0.824819
vt 0.875930 0.247237
vt 0.854583 -0.000000
vt 0.875930 0.000000
vt 0.880731 0.741136
vt 0.859385 0.493899
vt 0.880731 0.493899
vt 0.322094 0.824819
vt 0.342486 0.803472
vt 0.342486 0.824819
vt 0.342486 0.824819
vt 0.362877 0.803472
vt 0.362877 0.824819
vt 0.941877 0.525973
vt 0.921486 0.741136
vt 0.921486 0.525973
vt 0.921486 0.493899
vt 0.562623 0.253050
vt 0.281312 0.562623
vt 0.562623 0.759151
vt 0.562623 0.506101
vt 0.413177 0.803483
vt 0.000000 0.000000
vt 0.000000 0.281312
vt 0.562623 0.000000
vt 0.281312 0.281312
vt 0.000000 0.562623
vt 0.426906 0.825315
vt 0.955677 0.972405
vt 0.851776 0.741136
vt 0.426906 0.825315
vt 0.558411 0.816528
vt 0.440635 0.803483
vt 0.816189 0.493899
vt 0.865996 0.960613
vt 0.951366 0.492304
vt 0.950990 0.029084
vt 0.950990 0.001596
vt 0.965308 0.240849
vt 0.915315 0.741136
vt 0.916402 0.473381
vt 0.951366 0.282134
vt 0.951366 0.254646
vt 0.965685 0.493899
vt 0.969996 0.733152
vt 0.845954 0.253050
vt 0.896293 0.000000
vt 0.875930 0.253905
vt 0.518533 0.562623
vt 0.518533 0.816528
vt 0.865996 0.960613
vt 0.880731 0.494326
vt 0.901095 0.493899
vt 0.901095 0.747804
vt 0.916402 0.473381
vt 0.896293 0.016054
vt 0.916656 0.253478
vt 0.929535 0.978794
vt 0.977977 0.253050
vt 0.965309 0.253050
vt 0.977977 -0.000000
vt 0.463810 0.803472
vt 0.941877 0.747804
vt 0.784412 0.253050
vt 0.950990 -0.000000
vt 0.812146 0.792934
vt 0.803472 0.239253
vt 0.816173 0.760860
vt 0.977042 0.253050
vt 0.399433 0.833098
vt 0.969996 0.747804
vt 0.375477 0.833936
vt 0.388078 0.803472
vt 0.816189 0.254646
vt 0.816189 0.985461
vt 0.875627 0.253050
vt 0.473243 0.832965
vt 0.784412 0.760860
vt 0.150852 0.562623
vt 0.784412 0.760860
vt 0.854583 0.000000
vt 0.859385 0.493899
vt 0.921486 0.741136
vt 0.937048 0.247237
vt 0.281312 0.803472
vt 0.859385 0.741136
vt 0.342486 0.803472
vt 0.941877 0.741136
vt 0.941877 0.493899
s 1
usemtl マテリアル
f 6/1/1 2/2/2 7/3/1
f 5/4/2 1/5/3 2/6/2
f 4/7/4 7/8/1 3/9/4
f 8/10/3 3/11/4 1/12/3
f 6/1/1 5/306/2 2/2/2
f 5/4/2 8/307/3 1/5/3
f 4/7/4 6/308/1 7/8/1
f 8/10/3 4/309/4 3/11/4
usemtl Material.003
f 36/13/5 29/14/6 48/15/7
f 52/16/8 36/17/8 72/18/8
f 55/19/9 30/20/9 64/21/9
f 38/22/10 31/23/10 44/24/10
f 53/25/11 28/26/11 60/27/11
f 49/28/12 40/29/12 68/30/12
f 19/31/13 18/32/14 17/33/15
f 58/34/11 9/35/11 49/36/11
f 60/27/11 27/37/11 58/34/11
f 42/38/10 10/39/10 33/40/10
f 44/24/10 103/41/10 107/42/10
f 62/43/9 15/44/9 52/45/9
f 64/21/9 29/46/9 62/43/9
f 39/47/16 30/48/17 13/49/18
f 48/50/19 30/51/19 46/52/19
f 28/53/20 45/54/20 27/55/20
f 27/56/21 40/57/22 9/58/18
f 120/59/23 39/60/23 117/61/23
f 26/62/10 105/63/10 102/64/10
f 96/65/10 107/42/10 115/66/10
f 25/67/10 34/68/10 14/69/10
f 94/70/10 33/40/10 89/71/10
f 66/72/12 13/73/12 55/74/12
f 68/30/12 118/75/12 121/76/12
f 16/77/10 43/78/10 26/62/10
f 92/79/10 44/24/10 96/65/10
f 70/80/8 11/81/8 53/82/8
f 72/18/8 35/83/8 70/80/8
f 28/84/24 35/85/25 47/86/26
f 35/87/27 48/88/27 47/89/27
f 37/90/8 97/91/8 91/92/8
f 18/93/28 62/94/29 21/95/28
f 38/96/8 54/97/8 12/98/8
f 69/99/8 53/82/8 54/97/8
f 33/100/12 99/101/12 89/102/12
f 62/103/30 24/104/30 21/105/30
f 34/106/12 56/107/12 14/108/12
f 65/109/12 55/74/12 56/107/12
f 25/110/9 109/111/9 101/112/9
f 26/113/9 51/114/9 16/115/9
f 61/116/9 52/45/9 51/114/9
f 31/117/11 111/118/11 103/119/11
f 17/120/15 61/121/31 110/122/31
f 32/123/11 50/124/11 10/125/11
f 57/126/11 49/36/11 50/124/11
f 10/127/12 67/128/12 33/100/12
f 50/129/12 68/30/12 67/128/12
f 12/130/11 59/131/11 31/117/11
f 54/132/11 60/27/11 59/131/11
f 14/133/9 63/134/9 25/110/9
f 56/135/9 64/21/9 63/134/9
f 16/136/8 71/137/8 37/90/8
f 51/138/8 72/18/8 71/137/8
f 64/139/32 17/140/33 63/141/32
f 19/142/28 68/143/34 20/144/28
f 23/145/35 57/146/30 112/147/30
f 60/148/36 23/149/37 59/150/36
f 58/151/31 22/152/31 20/153/31
f 23/154/37 70/155/38 69/156/38
f 22/157/39 72/158/39 21/159/39
f 18/160/28 72/161/34 71/162/34
f 37/163/40 18/164/14 23/165/35
f 58/94/29 19/166/28 20/167/28
f 122/168/41 121/169/41 20/170/41
f 66/171/42 17/172/33 24/173/33
f 19/174/13 65/158/39 100/175/39
f 46/176/43 79/177/43 48/178/43
f 24/179/44 123/180/44 124/181/44
f 45/182/45 85/183/46 20/184/47
f 48/185/48 75/186/48 47/187/48
f 75/188/49 74/189/49 73/190/49
f 22/191/50 74/192/50 21/105/50
f 48/193/51 74/194/52 76/195/53
f 47/196/54 73/197/55 22/198/56
f 77/199/57 80/200/57 78/201/57
f 48/202/58 77/203/59 21/204/60
f 21/205/61 78/206/61 24/207/61
f 46/208/62 78/209/63 80/210/64
f 125/211/65 82/212/65 124/213/65
f 45/214/66 125/215/66 119/216/66
f 45/217/67 82/218/68 83/219/69
f 46/220/70 81/221/71 24/222/72
f 88/223/73 86/224/73 85/225/73
f 47/226/74 88/227/74 45/228/74
f 20/229/75 86/230/75 22/231/75
f 47/232/76 86/233/77 87/234/78
f 90/235/12 65/109/12 34/106/12
f 89/102/12 100/236/12 90/235/12
f 92/237/8 69/99/8 38/96/8
f 91/92/8 98/238/8 92/237/8
f 37/239/10 95/240/10 43/78/10
f 91/241/10 96/65/10 95/240/10
f 41/242/10 90/243/10 34/68/10
f 93/244/10 89/71/10 90/243/10
f 43/78/10 113/245/10 105/63/10
f 95/240/10 115/66/10 113/245/10
f 114/246/10 94/70/10 93/244/10
f 113/245/10 116/247/10 114/246/10
f 106/248/10 93/244/10 41/242/10
f 105/63/10 114/246/10 106/248/10
f 104/249/11 57/126/11 32/123/11
f 103/119/11 112/250/11 104/249/11
f 102/251/9 61/116/9 26/113/9
f 101/112/9 110/252/9 102/251/9
f 116/247/10 42/38/10 94/70/10
f 115/66/10 108/253/10 116/247/10
f 101/254/10 41/242/10 25/67/10
f 102/64/10 106/248/10 101/254/10
f 108/253/10 32/255/10 42/38/10
f 107/42/10 104/256/10 108/253/10
f 120/257/66 84/258/66 46/259/66
f 119/216/66 126/260/66 120/257/66
f 81/261/65 126/262/65 123/263/65
f 123/263/65 125/211/65 124/213/65
f 122/264/12 39/265/12 66/72/12
f 121/266/8 128/266/8 129/266/8
f 45/267/23 118/268/23 40/269/23
f 119/270/23 117/61/23 118/268/23
f 129/195/12 127/271/12 130/272/12
f 118/273/9 136/274/9 128/275/9
f 117/266/79 130/266/80 127/266/8
f 122/276/9 138/277/9 130/278/9
f 133/279/8 138/280/8 134/281/8
f 131/282/12 136/283/12 132/284/12
f 128/285/18 135/286/18 127/287/18
f 121/287/18 134/288/18 122/289/18
f 127/290/11 131/291/11 117/292/11
f 129/293/11 133/294/11 121/295/11
f 117/296/10 132/297/10 118/298/10
f 130/299/10 137/300/10 129/301/10
f 121/302/8 127/303/8 122/304/8
s 0
f 117/305/8 121/302/8 122/304/8
s 1
f 36/13/5 15/310/18 29/14/6
f 52/16/8 15/311/8 36/17/8
f 55/19/9 13/312/9 30/20/9
f 38/22/10 12/313/10 31/23/10
f 53/25/11 11/314/11 28/26/11
f 49/28/12 9/315/12 40/29/12
f 19/31/13 23/306/35 18/32/14
f 58/34/11 27/37/11 9/35/11
f 60/27/11 28/26/11 27/37/11
f 42/38/10 32/255/10 10/39/10
f 44/24/10 31/23/10 103/41/10
f 62/43/9 29/46/9 15/44/9
f 64/21/9 30/20/9 29/46/9
f 39/47/16 46/316/81 30/48/17
f 48/50/19 29/317/19 30/51/19
f 28/53/20 47/318/20 45/54/20
f 27/56/21 45/319/82 40/57/22
f 120/59/23 46/320/23 39/60/23
f 26/62/10 43/78/10 105/63/10
f 96/65/10 44/24/10 107/42/10
f 25/67/10 41/242/10 34/68/10
f 94/70/10 42/38/10 33/40/10
f 66/72/12 39/265/12 13/73/12
f 68/30/12 40/29/12 118/75/12
f 16/77/10 37/239/10 43/78/10
f 92/79/10 38/22/10 44/24/10
f 70/80/8 35/83/8 11/81/8
f 72/18/8 36/17/8 35/83/8
f 28/84/24 11/321/18 35/85/25
f 35/87/27 36/322/27 48/88/27
f 37/90/8 71/137/8 97/91/8
f 18/93/28 61/323/29 62/94/29
f 38/96/8 69/99/8 54/97/8
f 69/99/8 70/80/8 53/82/8
f 33/100/12 67/128/12 99/101/12
f 62/103/30 64/324/30 24/104/30
f 34/106/12 65/109/12 56/107/12
f 65/109/12 66/72/12 55/74/12
f 25/110/9 63/134/9 109/111/9
f 26/113/9 61/116/9 51/114/9
f 61/116/9 62/43/9 52/45/9
f 31/117/11 59/131/11 111/118/11
f 109/325/31 63/326/31 17/120/15
f 17/120/15 18/327/14 61/121/31
f 110/122/31 109/325/31 17/120/15
f 32/123/11 57/126/11 50/124/11
f 57/126/11 58/34/11 49/36/11
f 10/127/12 50/129/12 67/128/12
f 50/129/12 49/28/12 68/30/12
f 12/130/11 54/132/11 59/131/11
f 54/132/11 53/25/11 60/27/11
f 14/133/9 56/135/9 63/134/9
f 56/135/9 55/19/9 64/21/9
f 16/136/8 51/138/8 71/137/8
f 51/138/8 52/16/8 72/18/8
f 64/139/32 24/328/33 17/140/33
f 19/142/28 67/329/34 68/143/34
f 111/330/30 59/331/30 23/145/35
f 23/145/35 19/332/13 57/146/30
f 112/147/30 111/330/30 23/145/35
f 60/148/36 22/177/37 23/149/37
f 58/151/31 60/333/31 22/152/31
f 23/154/37 22/334/37 70/155/38
f 22/157/39 70/335/39 72/158/39
f 18/160/28 21/336/28 72/161/34
f 23/165/35 69/337/83 37/163/40
f 37/163/40 71/338/84 18/164/14
f 58/94/29 57/339/29 19/166/28
f 20/170/41 24/340/41 66/341/41
f 20/170/41 66/341/41 122/168/41
f 121/169/41 68/342/41 20/170/41
f 66/171/42 65/343/42 17/172/33
f 99/344/39 67/335/39 19/174/13
f 19/174/13 17/345/15 65/158/39
f 100/175/39 99/344/39 19/174/13
f 46/176/43 80/346/43 79/177/43
f 82/347/44 20/348/44 24/179/44
f 24/179/44 81/349/44 123/180/44
f 124/181/44 82/347/44 24/179/44
f 45/182/45 88/350/85 85/183/46
f 48/185/48 76/351/48 75/186/48
f 75/188/49 76/352/49 74/189/49
f 22/191/50 73/353/50 74/192/50
f 48/193/51 21/198/86 74/194/52
f 47/196/54 75/354/87 73/197/55
f 77/199/57 79/355/57 80/200/57
f 48/202/58 79/356/88 77/203/59
f 21/205/61 77/357/61 78/206/61
f 46/208/62 24/358/89 78/209/63
f 125/211/65 83/188/65 82/212/65
f 45/214/66 83/359/66 125/215/66
f 45/217/67 20/360/90 82/218/68
f 46/220/70 84/361/91 81/221/71
f 88/223/73 87/362/73 86/224/73
f 47/226/74 87/363/74 88/227/74
f 20/229/75 85/364/75 86/230/75
f 47/232/76 22/365/92 86/233/77
f 90/235/12 100/236/12 65/109/12
f 89/102/12 99/101/12 100/236/12
f 92/237/8 98/238/8 69/99/8
f 91/92/8 97/91/8 98/238/8
f 37/239/10 91/241/10 95/240/10
f 91/241/10 92/79/10 96/65/10
f 41/242/10 93/244/10 90/243/10
f 93/244/10 94/70/10 89/71/10
f 43/78/10 95/240/10 113/245/10
f 95/240/10 96/65/10 115/66/10
f 114/246/10 116/247/10 94/70/10
f 113/245/10 115/66/10 116/247/10
f 106/248/10 114/246/10 93/244/10
f 105/63/10 113/245/10 114/246/10
f 104/249/11 112/250/11 57/126/11
f 103/119/11 111/118/11 112/250/11
f 102/251/9 110/252/9 61/116/9
f 101/112/9 109/111/9 110/252/9
f 116/247/10 108/253/10 42/38/10
f 115/66/10 107/42/10 108/253/10
f 101/254/10 106/248/10 41/242/10
f 102/64/10 105/63/10 106/248/10
f 108/253/10 104/256/10 32/255/10
f 107/42/10 103/41/10 104/256/10
f 120/257/66 126/260/66 84/258/66
f 119/216/66 125/215/66 126/260/66
f 81/261/65 84/366/65 126/262/65
f 123/263/65 126/262/65 125/211/65
f 122/264/12 117/367/12 39/265/12
f 121/266/93 118/266/93 128/266/93
f 45/267/23 119/270/23 118/268/23
f 119/270/23 120/59/23 117/61/23
f 129/195/12 128/368/12 127/271/12
f 118/273/9 132/369/9 136/274/9
f 117/266/79 122/266/93 130/266/80
f 122/276/9 134/370/9 138/277/9
f 133/279/8 137/371/8 138/280/8
f 131/282/12 135/372/12 136/283/12
f 128/285/18 136/373/18 135/286/18
f 121/287/18 133/286/18 134/288/18
f 127/290/11 135/274/11 131/291/11
f 129/293/11 137/374/11 133/294/11
f 117/296/10 131/288/10 132/297/10
f 130/299/10 138/375/10 137/300/10
f 121/302/8 128/376/8 127/303/8
s 0
f 117/305/8 118/377/8 121/302/8
